<svg width="228" height="386" viewBox="0 0 228 386" fill="none" xmlns="http://www.w3.org/2000/svg">
<path d="M112.268 22.376C113.058 23.9173 118.74 26.1009 121.482 27C120.276 26.4862 117.599 24.8421 116.546 22.376C115.23 19.2933 114.901 15.0546 115.23 13.1279C115.559 11.2012 119.179 6.96254 120.824 6.5772C122.47 6.19187 126.418 5.03586 128.064 6.19187C129.38 7.11667 131.903 9.91678 133 11.2012C132.013 -0.744177 124.444 0.41183 121.811 0.0264942C119.179 -0.358842 110.623 3.49452 109.306 9.27455C107.99 15.0546 111.281 20.4493 112.268 22.376Z" fill="#78491B"/>
<rect x="17" y="76" width="199" height="195" fill="#78491B"/>
<circle cx="118" cy="176" r="2" fill="#29180E"/>
<rect x="52" y="202" width="131" height="184" fill="#713E2D"/>
<rect x="99" y="192" width="43" height="13.3333" fill="#FFE7CF"/>
<path d="M142 205.75C142 214.725 132.374 222 120.5 222C108.626 222 99.0002 214.725 99 205.75C99 205.611 99.0022 205.472 99.0068 205.333H141.993C141.998 205.472 142 205.611 142 205.75Z" fill="#FFE7CF"/>
<rect x="25" y="24" width="186" height="168" rx="55" fill="#FFE7CF"/>
<ellipse cx="211" cy="140" rx="17" ry="20" fill="#FFE7CF"/>
<ellipse cx="17" cy="140" rx="17" ry="20" fill="#FFE7CF"/>
<path d="M117.812 24C100.04 64.7249 61.444 128.525 15 136.001V79C15 48.6244 39.6244 24 70 24H117.812Z" fill="#78491B"/>
<path d="M116 24C133.772 64.7249 172.368 128.525 218.812 136.001V79C218.812 48.6244 194.188 24 163.812 24H116Z" fill="#78491B"/>
<ellipse cx="155.5" cy="137.5" rx="16.5" ry="20.5" fill="white" fill-opacity="0.8"/>
<path d="M155.5 116.75C164.799 116.75 172.25 126.093 172.25 137.5C172.25 148.907 164.799 158.25 155.5 158.25C146.201 158.25 138.75 148.907 138.75 137.5C138.75 126.093 146.201 116.75 155.5 116.75Z" fill="url(#paint0_linear_10_453)" fill-opacity="0.8" stroke="#3F2104" stroke-width="0.5"/>
<path d="M156 123.75C160.606 123.75 164.25 128.394 164.25 134C164.25 139.606 160.606 144.25 156 144.25C151.394 144.25 147.75 139.606 147.75 134C147.75 128.394 151.394 123.75 156 123.75Z" fill="#572C2C" stroke="black" stroke-width="0.5"/>
<path d="M156 117.75C159.47 117.75 162.25 120.791 162.25 124.5C162.25 128.209 159.47 131.25 156 131.25C152.53 131.25 149.75 128.209 149.75 124.5C149.75 120.791 152.53 117.75 156 117.75Z" fill="white" stroke="#331D07" stroke-width="0.5"/>
<path d="M141 122.015C148.765 115.348 167.65 108.615 181.068 135.015" stroke="#4D340B" stroke-width="2" stroke-linecap="round"/>
<path d="M141 118.015C148.765 111.348 167.65 104.615 181.068 131.015" stroke="#4D340B" stroke-width="2" stroke-linecap="round"/>
<path d="M141 120.015C148.765 113.348 167.65 106.615 181.068 133.015" stroke="#4D340B" stroke-width="2" stroke-linecap="round"/>
<path d="M149.386 114.56C151.383 114.56 155.856 112.448 157.773 104" stroke="#4D340B" stroke-width="3.5" stroke-linecap="round"/>
<path d="M169.886 119.84C171.218 119.84 174.199 118.256 175.477 111.92" stroke="#4D340B" stroke-width="2" stroke-linecap="round"/>
<path d="M174.545 122.48C175.877 122.48 178.858 121.424 180.136 117.2" stroke="#4D340B" stroke-linecap="round"/>
<path d="M177.341 126C178.45 126 180.935 125.648 182 124.24" stroke="#4D340B" stroke-linecap="round"/>
<ellipse cx="16.5" cy="20.5" rx="16.5" ry="20.5" transform="matrix(-1 0 0 1 101 117)" fill="white" fill-opacity="0.8"/>
<path d="M84.5 116.75C75.2013 116.75 67.75 126.093 67.75 137.5C67.75 148.907 75.2013 158.25 84.5 158.25C93.7987 158.25 101.25 148.907 101.25 137.5C101.25 126.093 93.7987 116.75 84.5 116.75Z" fill="url(#paint1_linear_10_453)" fill-opacity="0.8" stroke="#3F2104" stroke-width="0.5"/>
<path d="M84 123.75C79.3945 123.75 75.75 128.394 75.75 134C75.75 139.606 79.3945 144.25 84 144.25C88.6055 144.25 92.25 139.606 92.25 134C92.25 128.394 88.6055 123.75 84 123.75Z" fill="#572C2C" stroke="black" stroke-width="0.5"/>
<path d="M84 117.75C80.5298 117.75 77.75 120.791 77.75 124.5C77.75 128.209 80.5298 131.25 84 131.25C87.4702 131.25 90.25 128.209 90.25 124.5C90.25 120.791 87.4702 117.75 84 117.75Z" fill="white" stroke="#331D07" stroke-width="0.5"/>
<path d="M99 122.015C91.2348 115.348 72.35 108.615 58.9318 135.015" stroke="#4D340B" stroke-width="2" stroke-linecap="round"/>
<path d="M99 118.015C91.2348 111.348 72.35 104.615 58.9318 131.015" stroke="#4D340B" stroke-width="2" stroke-linecap="round"/>
<path d="M99 120.015C91.2348 113.348 72.35 106.615 58.9318 133.015" stroke="#4D340B" stroke-width="2" stroke-linecap="round"/>
<path d="M90.6136 114.56C88.6169 114.56 84.1442 112.448 82.2273 104" stroke="#4D340B" stroke-width="3.5" stroke-linecap="round"/>
<path d="M70.1136 119.84C68.7825 119.84 65.8007 118.256 64.5227 111.92" stroke="#4D340B" stroke-width="2" stroke-linecap="round"/>
<path d="M65.4546 122.48C64.1234 122.48 61.1416 121.424 59.8637 117.2" stroke="#4D340B" stroke-linecap="round"/>
<path d="M62.6591 126C61.5498 126 59.0649 125.648 58 124.24" stroke="#4D340B" stroke-linecap="round"/>
<circle cx="122" cy="158" r="2" fill="#29180E"/>
<path d="M109 174C115.081 177.438 124.324 183.282 136 174" stroke="black" stroke-width="1.5" stroke-linecap="round"/>
<g filter="url(#filter0_f_10_453)">
<ellipse cx="181" cy="163.5" rx="21" ry="17.5" fill="#FECAAE" fill-opacity="0.85"/>
</g>
<g filter="url(#filter1_f_10_453)">
<ellipse cx="55" cy="163.5" rx="21" ry="17.5" fill="#FECAAE" fill-opacity="0.85"/>
</g>
<path d="M147 93.3129C150.5 90.8129 160.1 87.3129 170.5 93.3129" stroke="#4D340B" stroke-width="2" stroke-linecap="round"/>
<path d="M90.5 93.3129C87 90.8129 77.4 87.3129 67 93.3129" stroke="#4D340B" stroke-width="2" stroke-linecap="round"/>
<defs>
<filter id="filter0_f_10_453" x="148" y="134" width="66" height="59" filterUnits="userSpaceOnUse" color-interpolation-filters="sRGB">
<feFlood flood-opacity="0" result="BackgroundImageFix"/>
<feBlend mode="normal" in="SourceGraphic" in2="BackgroundImageFix" result="shape"/>
<feGaussianBlur stdDeviation="6" result="effect1_foregroundBlur_10_453"/>
</filter>
<filter id="filter1_f_10_453" x="22" y="134" width="66" height="59" filterUnits="userSpaceOnUse" color-interpolation-filters="sRGB">
<feFlood flood-opacity="0" result="BackgroundImageFix"/>
<feBlend mode="normal" in="SourceGraphic" in2="BackgroundImageFix" result="shape"/>
<feGaussianBlur stdDeviation="6" result="effect1_foregroundBlur_10_453"/>
</filter>
<linearGradient id="paint0_linear_10_453" x1="155.5" y1="117" x2="155.5" y2="158" gradientUnits="userSpaceOnUse">
<stop stop-color="#4C3A37"/>
<stop offset="0.716346" stop-color="#E2A770"/>
<stop offset="0.975962" stop-color="#E6A67B"/>
</linearGradient>
<linearGradient id="paint1_linear_10_453" x1="84.5" y1="117" x2="84.5" y2="158" gradientUnits="userSpaceOnUse">
<stop stop-color="#4C3A37"/>
<stop offset="0.716346" stop-color="#E2A770"/>
<stop offset="0.975962" stop-color="#E6A67B"/>
</linearGradient>
</defs>
</svg>
