<svg width="189" height="254" viewBox="0 0 189 254" fill="none" xmlns="http://www.w3.org/2000/svg">
<path d="M146.153 206.277C141.493 206.277 137.243 203.137 136.033 198.417C134.603 192.827 137.973 187.127 143.563 185.697C149.593 184.147 154.873 181.067 158.423 177.007C161.993 172.937 163.913 167.637 163.563 162.847C163.233 158.377 161.013 153.537 158.663 148.417C156.383 143.447 154.013 138.297 152.703 132.377C149.013 115.707 155.603 97.4868 169.113 87.0468C173.683 83.5168 180.243 84.3568 183.773 88.9168C187.303 93.4768 186.463 100.047 181.903 103.577C174.783 109.087 171.163 119.077 173.113 127.867C173.943 131.617 175.743 135.537 177.653 139.697C180.533 145.967 183.803 153.077 184.403 161.317C185.163 171.727 181.423 182.467 174.143 190.787C167.743 198.087 158.963 203.327 148.753 205.947C147.883 206.167 147.013 206.277 146.153 206.277Z" fill="#EAB250" stroke="#3D2D19" stroke-width="5.5" stroke-linecap="round" stroke-linejoin="round"/>
<path d="M169.193 108.127C168.063 110.777 164.983 112.007 162.333 110.857L154.453 107.457C155.633 104.167 157.183 101.007 159.073 98.0669L166.463 101.257C169.123 102.397 170.333 105.477 169.193 108.117V108.127Z" fill="#E28920"/>
<path d="M180.944 147.207L174.024 149.657C171.294 150.627 168.314 149.187 167.354 146.467C166.394 143.747 167.814 140.767 170.544 139.807L176.714 137.627C177.014 138.307 177.334 138.997 177.654 139.687C178.744 142.067 179.894 144.567 180.934 147.207H180.944Z" fill="#E28920"/>
<path d="M184.513 164.357L178.123 166.617C175.393 167.587 172.423 166.147 171.463 163.427C170.503 160.707 171.923 157.727 174.653 156.767L183.133 153.767C183.773 156.167 184.233 158.677 184.423 161.307C184.503 162.317 184.523 163.337 184.523 164.357H184.513Z" fill="#E28920"/>
<path d="M163.704 124.877C162.654 127.567 159.634 128.907 156.944 127.867L151.793 125.877C151.553 122.207 151.774 118.527 152.434 114.917L160.704 118.117C163.404 119.167 164.724 122.197 163.694 124.877H163.704Z" fill="#E28920"/>
<path d="M184.414 161.307C184.494 162.317 184.514 163.337 184.514 164.357C184.414 173.787 180.724 183.277 174.154 190.777C167.754 198.087 158.974 203.327 148.754 205.947C147.884 206.167 147.014 206.277 146.154 206.277C141.494 206.277 137.254 203.137 136.044 198.417C134.604 192.827 137.974 187.137 143.564 185.697C149.594 184.147 154.864 181.067 158.424 177.007C161.994 172.927 163.924 167.637 163.574 162.847C163.244 158.367 161.024 153.537 158.674 148.417C156.394 143.447 154.034 138.297 152.714 132.377C152.244 130.237 151.934 128.057 151.804 125.877C151.564 122.207 151.784 118.527 152.444 114.917C152.894 112.387 153.564 109.887 154.444 107.457C155.624 104.167 157.174 101.007 159.064 98.067C161.754 93.867 165.134 90.117 169.114 87.037C173.674 83.497 180.244 84.337 183.774 88.907C187.314 93.467 186.474 100.037 181.914 103.567C174.794 109.077 171.174 119.057 173.114 127.857C173.814 130.977 175.174 134.217 176.724 137.617C177.024 138.297 177.344 138.987 177.664 139.677C178.754 142.057 179.904 144.557 180.944 147.197C181.764 149.297 182.524 151.477 183.124 153.767C183.764 156.167 184.224 158.677 184.414 161.307Z" stroke="#3D2D19" stroke-width="5.5" stroke-linecap="round" stroke-linejoin="round"/>
<path d="M148.543 234.667C144.263 240.317 137.943 242.727 132.583 243.527H25.2635C19.9035 242.727 13.5735 240.317 9.30352 234.667C7.01352 231.637 5.28353 228.017 4.18353 224.167C3.19353 220.717 2.70348 217.077 2.75348 213.527C2.75348 212.917 2.78354 212.307 2.82354 211.707C2.99354 209.197 3.31351 206.657 3.79351 204.117C4.43351 200.647 5.32353 197.197 6.43353 193.877C7.11353 191.837 7.86353 189.847 8.68353 187.927C11.3735 181.617 17.9435 171.197 24.1035 159.397C25.7035 156.337 27.2735 153.197 28.7335 150.007C30.0535 147.137 31.2935 144.247 32.4035 141.347C33.6635 138.007 34.7536 134.657 35.5836 131.367C36.6836 127.027 37.3135 122.787 37.3135 118.747H120.543C120.543 142.987 143.504 174.607 149.184 187.927C152.304 195.247 154.503 203.667 155.033 211.717C155.573 219.757 153.263 228.457 148.553 234.687L148.543 234.667Z" fill="#EAB250" stroke="#3D2D19" stroke-width="5.5" stroke-linecap="round" stroke-linejoin="round"/>
<path d="M72.0336 239.067C72.0336 249.277 61.3636 250.507 48.2036 250.507C35.0436 250.507 24.3735 249.277 24.3735 239.067C24.3735 228.857 35.0436 218.847 48.2036 218.847C61.3636 218.847 72.0336 228.867 72.0336 239.067Z" fill="white"/>
<path d="M133.474 239.067C133.474 249.277 122.804 250.507 109.644 250.507C96.4836 250.507 85.8135 249.277 85.8135 239.067C85.8135 228.857 96.4836 218.847 109.644 218.847C122.804 218.847 133.474 228.867 133.474 239.067Z" fill="white"/>
<path d="M30.0035 169.177C29.6135 174.217 29.4335 180.497 30.0035 187.657C30.2635 190.907 30.6736 194.347 31.2836 197.927C31.2836 197.987 31.3036 198.047 31.3136 198.107C32.9036 207.427 35.4035 215.147 37.7535 221.057C33.7935 222.807 30.4435 225.487 28.0935 228.647C25.7435 231.797 24.3735 235.427 24.3735 239.077C24.3735 249.287 35.0436 250.517 48.2036 250.517C61.3636 250.517 72.0336 249.287 72.0336 239.077V183.687" stroke="#3D2D19" stroke-width="5.5" stroke-linecap="round" stroke-linejoin="round"/>
<path d="M85.8135 183.677V239.067C85.8135 249.277 96.4836 250.507 109.644 250.507C122.804 250.507 133.474 249.277 133.474 239.067C133.474 231.767 128.024 224.567 120.094 221.057C122.464 215.117 124.973 207.317 126.573 197.927C128.523 186.457 128.434 176.507 127.854 169.177" stroke="#3D2D19" stroke-width="5.5" stroke-linecap="round" stroke-linejoin="round"/>
<path d="M70.9834 243.867H86.8634" stroke="#3D2D19" stroke-width="5.5" stroke-linecap="round" stroke-linejoin="round"/>
<path d="M91.7534 21.9971C103.293 8.44706 122.463 1.20706 141.993 3.02706C150.703 23.0171 150.333 45.6671 140.363 63.1371" fill="#EAB250"/>
<path d="M91.7534 21.9971C103.293 8.44706 122.463 1.20706 141.993 3.02706C150.703 23.0171 150.333 45.6671 140.363 63.1371" stroke="#3D2D19" stroke-width="5.5" stroke-linecap="round" stroke-linejoin="round"/>
<path d="M66.1034 21.9971C54.5634 8.44706 35.3934 1.20706 15.8634 3.02706C7.1534 23.0171 7.52341 45.6671 17.4934 63.1371" fill="#EAB250"/>
<path d="M66.1034 21.9971C54.5634 8.44706 35.3934 1.20706 15.8634 3.02706C7.1534 23.0171 7.52341 45.6671 17.4934 63.1371" stroke="#3D2D19" stroke-width="5.5" stroke-linecap="round" stroke-linejoin="round"/>
<path d="M55.5437 32.2273C48.0937 22.9373 36.5936 17.2373 25.3936 17.2973C21.4836 29.5473 22.9836 44.0173 29.7336 55.7173" fill="white"/>
<path d="M102.303 32.2273C109.753 22.9373 121.253 17.2373 132.453 17.2973C136.363 29.5473 134.863 44.0173 128.113 55.7173" fill="white"/>
<path d="M146.514 77.2171C146.514 78.9471 146.424 80.6371 146.244 82.2771C145.834 86.0871 144.963 89.6771 143.663 93.0471C142.283 96.6871 140.393 100.067 138.093 103.177C126.583 118.737 104.393 127.477 78.9235 127.477C53.4535 127.477 31.2734 118.737 19.7534 103.177C17.4534 100.067 15.5635 96.6871 14.1835 93.0471C12.8835 89.6771 12.0134 86.0871 11.6034 82.2771C11.4234 80.6271 11.3335 78.9471 11.3335 77.2171C11.3335 75.4871 11.4134 73.8371 11.5934 72.1571C13.8634 49.9771 30.8635 29.8371 54.1835 21.2271C57.4435 20.0271 60.8235 19.0471 64.3135 18.3271C67.4235 17.6771 70.6034 17.2271 73.8534 17.0071C75.5234 16.8871 77.2135 16.8271 78.9135 16.8271C80.6135 16.8271 82.3035 16.8871 83.9735 17.0071C87.2335 17.2371 90.4135 17.6871 93.5135 18.3271C97.0035 19.0571 100.383 20.0271 103.643 21.2271C126.973 29.8371 143.964 49.9771 146.234 72.1571C146.414 73.8371 146.494 75.5271 146.494 77.2171H146.514Z" fill="#EAB250"/>
<path d="M78.9232 106.307C92.0013 106.307 102.603 99.4885 102.603 91.0772C102.603 82.6659 92.0013 75.8472 78.9232 75.8472C65.8451 75.8472 55.2432 82.6659 55.2432 91.0772C55.2432 99.4885 65.8451 106.307 78.9232 106.307Z" fill="white"/>
<path d="M59.2533 85.947C62.335 85.947 64.8334 82.6294 64.8334 78.537C64.8334 74.4445 62.335 71.127 59.2533 71.127C56.1715 71.127 53.6733 74.4445 53.6733 78.537C53.6733 82.6294 56.1715 85.947 59.2533 85.947Z" fill="#3D2D19"/>
<path d="M98.5935 85.947C101.675 85.947 104.174 82.6294 104.174 78.537C104.174 74.4445 101.675 71.127 98.5935 71.127C95.5118 71.127 93.0137 74.4445 93.0137 78.537C93.0137 82.6294 95.5118 85.947 98.5935 85.947Z" fill="#3D2D19"/>
<path d="M78.9232 82.1372C78.6332 86.3772 74.2732 90.3772 68.3232 91.8472Z" fill="#65625A"/>
<path d="M78.9232 82.1372C78.6332 86.3772 74.2732 90.3772 68.3232 91.8472" stroke="#3D2D19" stroke-width="5.5" stroke-linecap="round" stroke-linejoin="round"/>
<path d="M78.9233 82.1372C79.2133 86.3772 83.5734 90.3772 89.5234 91.8472Z" fill="#65625A"/>
<path d="M78.9233 82.1372C79.2133 86.3772 83.5734 90.3772 89.5234 91.8472" stroke="#3D2D19" stroke-width="5.5" stroke-linecap="round" stroke-linejoin="round"/>
<path d="M83.9932 16.9969V46.8069C83.9932 49.6069 81.7231 51.8669 78.9331 51.8669C76.1431 51.8669 73.873 49.6069 73.873 46.8069V16.9969C75.543 16.8769 77.2331 16.8169 78.9331 16.8169C80.6331 16.8169 82.3232 16.8769 83.9932 16.9969Z" fill="#E28920"/>
<path d="M64.3134 18.3169V38.6869C64.3134 41.4869 62.0533 43.7469 59.2533 43.7469C56.4533 43.7469 54.1934 41.4869 54.1934 38.6869V21.2169C57.4534 20.0169 60.8334 19.0369 64.3234 18.3169H64.3134Z" fill="#E28920"/>
<path d="M103.663 21.2169V38.6869C103.663 41.4869 101.393 43.7469 98.603 43.7469C95.813 43.7469 93.543 41.4869 93.543 38.6869V18.3169C97.033 19.0469 100.413 20.0169 103.673 21.2169H103.663Z" fill="#E28920"/>
<path d="M31.1333 77.2167C31.1333 80.0067 28.8634 82.2767 26.0734 82.2767H11.6133C11.4333 80.6267 11.3433 78.9467 11.3433 77.2167C11.3433 75.4867 11.4233 73.8367 11.6033 72.1567H26.0734C28.8634 72.1567 31.1333 74.4167 31.1333 77.2167Z" fill="#E28920"/>
<path d="M31.1333 98.1071C31.1333 100.897 28.8634 103.167 26.0734 103.167H19.7633C17.4633 100.057 15.5734 96.6771 14.1934 93.0371H26.0734C28.8634 93.0371 31.1333 95.3071 31.1333 98.0971V98.1071Z" fill="#E28920"/>
<path d="M146.514 77.2167C146.514 78.9467 146.424 80.6367 146.244 82.2767H131.783C128.993 82.2767 126.724 80.0067 126.724 77.2167C126.724 74.4267 128.993 72.1567 131.783 72.1567H146.254C146.434 73.8367 146.514 75.5267 146.514 77.2167Z" fill="#E28920"/>
<path d="M143.664 93.0469C142.284 96.6869 140.394 100.067 138.094 103.177H131.783C128.993 103.177 126.724 100.907 126.724 98.1169C126.724 95.3269 128.993 93.0569 131.783 93.0569H143.664V93.0469Z" fill="#E28920"/>
<path d="M44.6433 121.377C34.2333 117.247 25.6133 111.087 19.7633 103.177C17.4633 100.067 15.5734 96.6871 14.1934 93.0471C12.8934 89.6771 12.0233 86.0871 11.6133 82.2771C11.4333 80.6271 11.3433 78.9471 11.3433 77.2171C11.3433 75.4871 11.4233 73.8371 11.6033 72.1571C13.8733 49.9771 30.8734 29.8371 54.1934 21.2271C57.4534 20.0271 60.8334 19.0471 64.3234 18.3271C67.4334 17.6771 70.6133 17.2271 73.8633 17.0071C75.5333 16.8871 77.2233 16.8271 78.9233 16.8271C80.6233 16.8271 82.3134 16.8871 83.9834 17.0071C87.2434 17.2371 90.4234 17.6871 93.5234 18.3271C97.0134 19.0571 100.393 20.0271 103.653 21.2271C126.983 29.8371 143.973 49.9771 146.243 72.1571C146.423 73.8371 146.503 75.5271 146.503 77.2171C146.503 78.9071 146.413 80.6371 146.233 82.2771C145.823 86.0871 144.953 89.6771 143.653 93.0471C142.273 96.6871 140.383 100.067 138.083 103.177C132.253 111.057 123.683 117.197 113.333 121.327" stroke="#3D2D19" stroke-width="5.5" stroke-linecap="round" stroke-linejoin="round"/>
<path d="M34.5435 249.507C33.6135 244.367 34.3034 238.937 36.5934 234.227" stroke="#3D2D19" stroke-width="5.5" stroke-linecap="round" stroke-linejoin="round"/>
<path d="M48.6836 250.507C47.6336 246.007 48.3135 241.207 50.6535 237.077" stroke="#3D2D19" stroke-width="5.5" stroke-linecap="round" stroke-linejoin="round"/>
<path d="M121.264 234.237C123.544 238.937 124.243 244.377 123.313 249.517" stroke="#3D2D19" stroke-width="5.5" stroke-linecap="round" stroke-linejoin="round"/>
<path d="M107.193 237.077C109.533 241.207 110.203 246.007 109.163 250.507" stroke="#3D2D19" stroke-width="5.5" stroke-linecap="round" stroke-linejoin="round"/>
<path d="M49.2535 137.607C49.0335 140.337 46.7436 142.417 44.0536 142.417C43.9136 142.417 43.7635 142.417 43.6235 142.397C39.9435 142.097 36.2736 141.497 32.6636 140.607C33.8136 137.507 34.8036 134.417 35.5736 131.367C35.6336 131.117 35.7035 130.857 35.7535 130.607C38.6235 131.287 41.5336 131.747 44.4536 131.987C47.3236 132.227 49.4735 134.737 49.2435 137.617L49.2535 137.607Z" fill="#E28920"/>
<path d="M43.3737 156.647C43.1537 159.377 40.8637 161.457 38.1637 161.457C38.0237 161.457 37.8837 161.457 37.7437 161.457C33.2137 161.097 28.7037 160.267 24.3037 158.997C25.8337 156.067 27.3236 153.067 28.7236 150.017C28.8136 149.827 28.8936 149.637 28.9836 149.447C32.1336 150.247 35.3537 150.787 38.5637 151.037C41.4437 151.277 43.5936 153.787 43.3636 156.667L43.3737 156.647Z" fill="#E28920"/>
<path d="M20.0032 203.997C17.1832 204.357 14.3332 204.537 11.4832 204.537C8.91315 204.537 6.3432 204.397 3.7832 204.107C4.4232 200.637 5.31322 197.187 6.42322 193.867C10.5132 194.217 14.6332 194.147 18.6732 193.627C21.5432 193.267 24.1532 195.287 24.5132 198.147C24.8832 201.017 22.8532 203.627 19.9932 203.987L20.0032 203.997Z" fill="#E28920"/>
<path d="M18.1335 223.837C15.3235 224.197 12.4735 224.377 9.61346 224.377C7.80346 224.377 5.99353 224.307 4.18353 224.167C3.19353 220.717 2.70348 217.077 2.75348 213.527C7.44348 214.067 12.1835 214.057 16.8235 213.477C19.6935 213.117 22.3035 215.137 22.6635 217.997C23.0335 220.867 21.0035 223.477 18.1335 223.837Z" fill="#E28920"/>
<path d="M37.3135 118.737C37.3135 122.547 36.7435 126.527 35.7635 130.597C35.7135 130.847 35.6436 131.107 35.5836 131.357C34.8136 134.407 33.8235 137.497 32.6735 140.597C32.5835 140.837 32.5035 141.097 32.4035 141.337C31.3635 144.047 30.2235 146.747 28.9935 149.417L28.7335 149.987C27.3335 153.037 25.8435 156.037 24.3135 158.967C24.2435 159.107 24.1735 159.237 24.1035 159.377C17.9335 171.177 11.3735 181.607 8.68353 187.907C7.86353 189.827 7.11353 191.817 6.43353 193.857C5.32353 197.177 4.43351 200.637 3.79351 204.097C3.31351 206.637 2.99354 209.187 2.82354 211.687C2.78354 212.287 2.75348 212.897 2.75348 213.507C2.70348 217.057 3.19353 220.697 4.18353 224.147C5.29353 227.997 7.01352 231.617 9.30352 234.647C13.5835 240.297 19.9035 242.707 25.2635 243.507" stroke="#3D2D19" stroke-width="5.5" stroke-linecap="round" stroke-linejoin="round"/>
<path d="M108.604 137.607C108.824 140.337 111.113 142.417 113.803 142.417C113.943 142.417 114.094 142.417 114.234 142.397C117.914 142.097 121.584 141.497 125.194 140.607C124.044 137.507 123.053 134.417 122.283 131.367C122.223 131.117 122.154 130.857 122.104 130.607C119.234 131.287 116.324 131.747 113.404 131.987C110.534 132.227 108.384 134.737 108.614 137.617L108.604 137.607Z" fill="#E28920"/>
<path d="M114.474 156.647C114.694 159.377 116.984 161.457 119.684 161.457C119.824 161.457 119.964 161.457 120.104 161.457C124.634 161.097 129.143 160.267 133.543 158.997C132.013 156.067 130.524 153.067 129.124 150.017C129.034 149.827 128.954 149.637 128.864 149.447C125.714 150.247 122.493 150.787 119.283 151.037C116.403 151.277 114.254 153.787 114.484 156.667L114.474 156.647Z" fill="#E28920"/>
<path d="M137.844 203.997C140.664 204.357 143.514 204.537 146.364 204.537C148.934 204.537 151.504 204.397 154.064 204.107C153.424 200.637 152.534 197.187 151.424 193.867C147.334 194.217 143.214 194.147 139.174 193.627C136.304 193.267 133.694 195.287 133.334 198.147C132.964 201.017 134.994 203.627 137.854 203.987L137.844 203.997Z" fill="#E28920"/>
<path d="M139.714 223.837C142.524 224.197 145.374 224.377 148.234 224.377C150.044 224.377 151.854 224.307 153.664 224.167C154.654 220.717 155.144 217.077 155.094 213.527C150.404 214.067 145.664 214.057 141.024 213.477C138.154 213.117 135.544 215.137 135.184 217.997C134.814 220.867 136.844 223.477 139.714 223.837Z" fill="#E28920"/>
<path d="M132.583 243.527C137.943 242.727 144.273 240.317 148.543 234.667C150.833 231.637 152.563 228.017 153.663 224.167C154.653 220.717 155.143 217.077 155.093 213.527C155.093 212.917 155.063 212.307 155.023 211.707C154.853 209.197 154.533 206.657 154.053 204.117C153.413 200.647 152.523 197.197 151.413 193.877C150.733 191.837 149.983 189.847 149.163 187.927C146.473 181.617 139.903 171.197 133.743 159.397C133.673 159.257 133.603 159.127 133.533 158.987C132.003 156.057 130.513 153.057 129.113 150.007L128.853 149.437C127.623 146.767 126.483 144.067 125.443 141.357C125.343 141.117 125.263 140.857 125.173 140.617C124.023 137.517 123.033 134.427 122.263 131.377C122.203 131.127 122.133 130.867 122.083 130.617C121.103 126.537 120.533 122.557 120.533 118.757" stroke="#3D2D19" stroke-width="5.5" stroke-linecap="round" stroke-linejoin="round"/>
</svg>
