<svg width="68" height="166" viewBox="0 0 68 166" fill="none" xmlns="http://www.w3.org/2000/svg">
<path d="M59 0H0V119H55C57.2091 119 59 117.209 59 115V0Z" fill="#3D3A34"/>
<rect width="38" height="12" transform="matrix(-1 0 0 1 47 119)" fill="#FFFDFD"/>
<path d="M46.7168 131V131.079C47.3259 131.027 47.9433 131 48.5674 131C59.2997 131 68 138.835 68 148.5C68 158.165 59.2997 166 48.5674 166C47.9432 166 47.3259 165.972 46.7168 165.92V166H9C7.34315 166 6 164.657 6 163V134C6 132.343 7.34315 131 9 131H46.7168Z" fill="#372D22"/>
</svg>
