<svg width="67" height="166" viewBox="0 0 67 166" fill="none" xmlns="http://www.w3.org/2000/svg">
<rect x="19" y="119" width="38" height="12" fill="#FFFDFD"/>
<path d="M21.2832 131V131.079C20.6741 131.027 20.0567 131 19.4326 131C8.70026 131 0 138.835 0 148.5C0 158.165 8.70026 166 19.4326 166C20.0568 166 20.6741 165.972 21.2832 165.92V166H59C60.6569 166 62 164.657 62 163V134C62 132.343 60.6569 131 59 131H21.2832Z" fill="#372D22"/>
<path d="M8 0H67V119H12C9.79086 119 8 117.209 8 115V0Z" fill="#3D3A34"/>
</svg>
